<svg xmlns="http://www.w3.org/2000/svg" width="1937.441" height="945.146" viewBox="0 0 1937.441 945.146">
  <g id="Group_46" data-name="Group 46" transform="translate(-2264 -4094.854)">
    <path id="Path_140" data-name="Path 140" d="M0,5040s348.569-941.7,792.956-945.136S1920.238,5040,1920.238,5040Z" transform="translate(2264)" fill="#d8f8ff"/>
    <circle id="Ellipse_34" data-name="Ellipse 34" cx="85.5" cy="85.5" r="85.5" transform="translate(2295 4737)" fill="#97fbd1" opacity="0.311"/>
    <path id="Path_139" data-name="Path 139" d="M16.163,5040s95.979-162.283,325.294-161.848,180.614-183.372,392.311-188.17,419.4,47,519.536,158.753,305.282-330.8,476.41-329.81,207.727,74.775,207.727,74.775L1922.47,5040Z" transform="translate(2264)" fill="#97fbd1" opacity="0.284"/>
    <path id="Path_138" data-name="Path 138" d="M49.3,5029.541s99.878-97.6,212.556-103.728,308.353,101.778,409.191,103.728,149.974-115.557,310.424-121.133,470.793,123.447,580.117,121.133,136.306-193.868,248.1-193.868,108.162,193.868,108.162,193.868Z" transform="translate(2266 10)" fill="#fa0005" opacity="0.181"/>
  </g>
</svg>
