<svg xmlns="http://www.w3.org/2000/svg" width="1942.548" height="3964" viewBox="0 0 1942.548 3964">
  <g id="Group_49" data-name="Group 49" transform="translate(-2026.894 -1076)">
    <g id="Path_143" data-name="Path 143" transform="translate(2029 1076)" fill="#faf5f5">
      <path d="M 1936.5 3963.5 L 0.5 3963.5 L 0.5 0.5 L 1936.5 0.5 L 1936.5 3963.5 Z" stroke="none"/>
      <path d="M 1 1 L 1 3963 L 1936 3963 L 1936 1 L 1 1 M 0 0 L 1937 0 L 1937 3964 L 0 3964 L 0 0 Z" stroke="none" fill="#707070"/>
    </g>
    <path id="Path_144" data-name="Path 144" d="M2046.894,3002.776V1986.66s75.527-345.445,590.484-287.24c-2.5,7.378,219.209-97.792,1025.518,818.4,5.306,5.667,326.545,467.332,326.545,467.332S3640.1,3917.317,3135.759,4107.439c-3.657-3.563-308.133,157.269-573.585-36.025-2.951-1.523-364.375-332.761-455.528-803.735C2104.84,3267.3,2046.894,3002.776,2046.894,3002.776Z" transform="translate(-20)" fill="#97fbd1" opacity="0.198"/>
    <g id="Group_48" data-name="Group 48" transform="translate(2032)">
      <path id="Path_135" data-name="Path 135" d="M0,5040s348.569-941.7,792.956-945.136S1920.238,5040,1920.238,5040Z" fill="#d8f8ff"/>
      <circle id="Ellipse_32" data-name="Ellipse 32" cx="125.5" cy="125.5" r="125.5" transform="translate(31 4692)" fill="#97fbd1" opacity="0.148"/>
      <circle id="Ellipse_33" data-name="Ellipse 33" cx="85.5" cy="85.5" r="85.5" transform="translate(31 4737)" fill="#97fbd1" opacity="0.311"/>
      <path id="Path_136" data-name="Path 136" d="M16.163,5040s95.979-162.283,325.294-161.848,180.614-183.372,392.311-188.17,419.4,47,519.536,158.753,305.282-330.8,476.41-329.81,207.727,74.775,207.727,74.775L1922.47,5040Z" fill="#97fbd1" opacity="0.284"/>
      <path id="Path_137" data-name="Path 137" d="M49.3,5029.541s99.878-97.6,212.556-103.728,308.353,101.778,409.191,103.728,149.974-115.557,310.424-121.133,470.793,123.447,580.117,121.133,136.306-193.868,248.1-193.868,108.162,193.868,108.162,193.868Z" transform="translate(2 10)" fill="#fa0005" opacity="0.181"/>
    </g>
  </g>
</svg>
